<svg width="32" height="32" viewBox="0 0 32 32" fill="none" xmlns="http://www.w3.org/2000/svg">
<path d="M10.96 12.3002C11.0517 12.3835 11.1711 12.4298 11.295 12.4302H11.365C11.4374 12.4201 11.5067 12.3943 11.568 12.3545C11.6293 12.3148 11.6812 12.2621 11.72 12.2002L13.295 9.70019C13.3659 9.58814 13.3894 9.45249 13.3604 9.32309C13.3313 9.19369 13.252 9.08114 13.14 9.01019C13.0279 8.93924 12.8923 8.91569 12.7629 8.94479C12.6335 8.97384 12.5209 9.05314 12.45 9.16519L11.19 11.1652L10.415 10.4502C10.3167 10.3615 10.1874 10.3154 10.0552 10.322C9.92311 10.3286 9.79891 10.3872 9.70996 10.4852C9.66501 10.5336 9.63011 10.5905 9.60726 10.6525C9.58441 10.7145 9.57406 10.7804 9.57686 10.8464C9.57966 10.9124 9.59551 10.9773 9.62351 11.0371C9.65151 11.097 9.69106 11.1507 9.73996 11.1952L10.96 12.3002Z" fill="#868AA8"/>
<path d="M10.9599 18.4603C11.0531 18.5413 11.1715 18.5873 11.2949 18.5903H11.3649C11.4373 18.5802 11.5066 18.5544 11.568 18.5147C11.6293 18.4749 11.6812 18.4222 11.7199 18.3603L13.2949 15.8603C13.3643 15.7486 13.387 15.6142 13.358 15.486C13.3289 15.3578 13.2506 15.2462 13.1399 15.1753C13.0845 15.1401 13.0226 15.1163 12.9579 15.105C12.8932 15.0938 12.8269 15.0954 12.7628 15.1098C12.6988 15.1242 12.6381 15.1511 12.5845 15.1889C12.5308 15.2268 12.4851 15.2748 12.4499 15.3303L11.1899 17.3303L10.4149 16.6203C10.3168 16.5308 10.1871 16.4839 10.0545 16.49C9.92179 16.4961 9.79699 16.5546 9.70744 16.6528C9.61794 16.7509 9.57109 16.8806 9.57719 17.0132C9.58329 17.1459 9.64184 17.2708 9.73994 17.3603L10.9599 18.4603Z" fill="#868AA8"/>
<path d="M10.9599 24.365C11.0516 24.4484 11.171 24.4947 11.2949 24.495H11.3649C11.4369 24.4855 11.5059 24.4605 11.5672 24.4216C11.6285 24.3828 11.6806 24.331 11.7199 24.27L13.2949 21.77C13.3301 21.7145 13.3539 21.6527 13.3652 21.588C13.3764 21.5233 13.3748 21.457 13.3604 21.3929C13.346 21.3288 13.3191 21.2682 13.2813 21.2145C13.2435 21.1608 13.1954 21.1151 13.1399 21.08C13.0845 21.0449 13.0226 21.021 12.9579 21.0098C12.8932 20.9986 12.8269 21.0002 12.7628 21.0146C12.6988 21.029 12.6381 21.0558 12.5845 21.0937C12.5308 21.1315 12.4851 21.1795 12.4499 21.235L11.1899 23.235L10.4149 22.5C10.3168 22.4105 10.1871 22.3636 10.0545 22.3697C9.92179 22.3758 9.79699 22.4344 9.70744 22.5325C9.61794 22.6306 9.57109 22.7603 9.57719 22.893C9.58329 23.0257 9.64184 23.1505 9.73994 23.24L10.9599 24.365Z" fill="#868AA8"/>
<path d="M23.5 4H18.5C18.5 3.33696 18.2366 2.70107 17.7677 2.23223C17.299 1.76339 16.663 1.5 16 1.5C15.337 1.5 14.701 1.76339 14.2323 2.23223C13.7634 2.70107 13.5 3.33696 13.5 4H8.5C7.70435 4 6.9413 4.31607 6.3787 4.87868C5.81605 5.4413 5.5 6.20435 5.5 7V27.5C5.5 28.2957 5.81605 29.0587 6.3787 29.6213C6.9413 30.184 7.70435 30.5 8.5 30.5H23.5C24.2957 30.5 25.0587 30.184 25.6213 29.6213C26.184 29.0587 26.5 28.2957 26.5 27.5V7C26.5 6.20435 26.184 5.4413 25.6213 4.87868C25.0587 4.31607 24.2957 4 23.5 4ZM11.285 6.91C11.354 7.21825 11.5257 7.49395 11.7718 7.69195C12.018 7.89 12.3241 7.9986 12.64 8H19.36C19.6759 7.9986 19.982 7.89 20.2281 7.69195C20.4743 7.49395 20.646 7.21825 20.715 6.91H22.915C22.9923 6.91 23.0688 6.9253 23.1401 6.955C23.2114 6.9847 23.2761 7.02825 23.3305 7.0831C23.3848 7.13795 23.4278 7.20305 23.4569 7.2746C23.486 7.34615 23.5007 7.42275 23.5 7.5V27C23.5007 27.0772 23.486 27.1539 23.4569 27.2254C23.4278 27.297 23.3848 27.3621 23.3305 27.4169C23.2761 27.4718 23.2114 27.5153 23.1401 27.545C23.0688 27.5747 22.9923 27.59 22.915 27.59H9.085C9.00775 27.59 8.93125 27.5747 8.85995 27.545C8.78865 27.5153 8.72395 27.4718 8.66955 27.4169C8.6152 27.3621 8.5722 27.297 8.5431 27.2254C8.514 27.1539 8.49935 27.0772 8.5 27V7.5C8.49935 7.42275 8.514 7.34615 8.5431 7.2746C8.5722 7.20305 8.6152 7.13795 8.66955 7.0831C8.72395 7.02825 8.78865 6.9847 8.85995 6.955C8.93125 6.9253 9.00775 6.91 9.085 6.91H11.285ZM14.065 5C14.0865 5.00285 14.1084 5.00285 14.13 5C14.1531 5.005 14.1769 5.005 14.2 5C14.2 5 14.2 5 14.23 5L14.32 4.955C14.3468 4.94129 14.372 4.92451 14.395 4.905C14.4189 4.88333 14.4391 4.85801 14.455 4.83L14.5 4.72C14.5122 4.69079 14.5223 4.66071 14.53 4.63C14.5328 4.59673 14.5328 4.56328 14.53 4.53C14.53 4.53 14.53 4.53 14.53 4.5C14.5328 4.47843 14.5328 4.45657 14.53 4.435C14.535 4.41193 14.535 4.38806 14.53 4.365C14.5037 4.24521 14.4937 4.12246 14.5 4C14.5 3.60217 14.6581 3.22065 14.9394 2.93934C15.2206 2.65804 15.6022 2.5 16 2.5C16.3978 2.5 16.7794 2.65804 17.0606 2.93934C17.3419 3.22065 17.5 3.60217 17.5 4C17.5014 4.12314 17.4863 4.24589 17.455 4.365C17.45 4.38806 17.45 4.41193 17.455 4.435C17.4522 4.45657 17.4522 4.47843 17.455 4.5C17.455 4.5 17.455 4.5 17.455 4.53C17.4522 4.56328 17.4522 4.59673 17.455 4.63C17.4627 4.66071 17.4728 4.69079 17.485 4.72L17.54 4.795C17.5559 4.82301 17.5761 4.84832 17.6 4.87C17.623 4.88951 17.6481 4.90629 17.675 4.92C17.7028 4.93893 17.7331 4.95406 17.765 4.965C17.765 4.965 17.765 4.965 17.795 4.965C17.8397 4.97228 17.8853 4.97228 17.93 4.965H19.75V6.575C19.75 6.67845 19.7089 6.77765 19.6357 6.85075C19.5626 6.9239 19.4635 6.965 19.36 6.965H12.64C12.5366 6.965 12.4374 6.9239 12.3643 6.85075C12.2911 6.77765 12.25 6.67845 12.25 6.575V5H14.065ZM25.5 27.5C25.5 28.0305 25.2893 28.5392 24.9142 28.9142C24.5392 29.2893 24.0305 29.5 23.5 29.5H8.5C7.96955 29.5 7.46085 29.2893 7.0858 28.9142C6.7107 28.5392 6.5 28.0305 6.5 27.5V7C6.5 6.46955 6.7107 5.96085 7.0858 5.5858C7.46085 5.2107 7.96955 5 8.5 5H11.25V5.91H9.085C8.66415 5.9113 8.26105 6.0794 7.96395 6.37745C7.66685 6.6755 7.5 7.07915 7.5 7.5V27C7.5 27.4209 7.66685 27.8245 7.96395 28.1225C8.26105 28.4206 8.66415 28.5887 9.085 28.59H22.915C23.3359 28.5887 23.739 28.4206 24.0361 28.1225C24.3332 27.8245 24.5 27.4209 24.5 27V7.5C24.5 7.07915 24.3332 6.6755 24.0361 6.37745C23.739 6.0794 23.3359 5.9113 22.915 5.91H20.75V5H23.5C24.0305 5 24.5392 5.2107 24.9142 5.5858C25.2893 5.96085 25.5 6.46955 25.5 7V27.5Z" fill="#868AA8"/>
<path d="M14.5 17.5H22C22.1326 17.5 22.2598 17.4473 22.3535 17.3535C22.4473 17.2598 22.5 17.1326 22.5 17C22.5 16.8674 22.4473 16.7402 22.3535 16.6465C22.2598 16.5527 22.1326 16.5 22 16.5H14.5C14.3674 16.5 14.2402 16.5527 14.1465 16.6465C14.0527 16.7402 14 16.8674 14 17C14 17.1326 14.0527 17.2598 14.1465 17.3535C14.2402 17.4473 14.3674 17.5 14.5 17.5Z" fill="#868AA8"/>
<path d="M14.5 11.5H22C22.1326 11.5 22.2598 11.4473 22.3535 11.3535C22.4473 11.2598 22.5 11.1326 22.5 11C22.5 10.8674 22.4473 10.7402 22.3535 10.6465C22.2598 10.5527 22.1326 10.5 22 10.5H14.5C14.3674 10.5 14.2402 10.5527 14.1465 10.6465C14.0527 10.7402 14 10.8674 14 11C14 11.1326 14.0527 11.2598 14.1465 11.3535C14.2402 11.4473 14.3674 11.5 14.5 11.5Z" fill="#868AA8"/>
<path d="M22 12.5H18.5C18.3674 12.5 18.2402 12.5527 18.1465 12.6465C18.0527 12.7402 18 12.8674 18 13C18 13.1326 18.0527 13.2598 18.1465 13.3535C18.2402 13.4473 18.3674 13.5 18.5 13.5H22C22.1326 13.5 22.2598 13.4473 22.3535 13.3535C22.4473 13.2598 22.5 13.1326 22.5 13C22.5 12.8674 22.4473 12.7402 22.3535 12.6465C22.2598 12.5527 22.1326 12.5 22 12.5Z" fill="#868AA8"/>
<path d="M22 18.5H18.5C18.3674 18.5 18.2402 18.5527 18.1465 18.6465C18.0527 18.7402 18 18.8674 18 19C18 19.1326 18.0527 19.2598 18.1465 19.3535C18.2402 19.4473 18.3674 19.5 18.5 19.5H22C22.1326 19.5 22.2598 19.4473 22.3535 19.3535C22.4473 19.2598 22.5 19.1326 22.5 19C22.5 18.8674 22.4473 18.7402 22.3535 18.6465C22.2598 18.5527 22.1326 18.5 22 18.5Z" fill="#868AA8"/>
<path d="M22 24.5H18.5C18.3674 24.5 18.2402 24.5527 18.1465 24.6465C18.0527 24.7402 18 24.8674 18 25C18 25.1326 18.0527 25.2598 18.1465 25.3535C18.2402 25.4473 18.3674 25.5 18.5 25.5H22C22.1326 25.5 22.2598 25.4473 22.3535 25.3535C22.4473 25.2598 22.5 25.1326 22.5 25C22.5 24.8674 22.4473 24.7402 22.3535 24.6465C22.2598 24.5527 22.1326 24.5 22 24.5Z" fill="#868AA8"/>
<path d="M14.5 23.5H22C22.1326 23.5 22.2598 23.4473 22.3535 23.3535C22.4473 23.2598 22.5 23.1326 22.5 23C22.5 22.8674 22.4473 22.7402 22.3535 22.6465C22.2598 22.5527 22.1326 22.5 22 22.5H14.5C14.3674 22.5 14.2402 22.5527 14.1465 22.6465C14.0527 22.7402 14 22.8674 14 23C14 23.1326 14.0527 23.2598 14.1465 23.3535C14.2402 23.4473 14.3674 23.5 14.5 23.5Z" fill="#868AA8"/>
</svg>
