<svg width="32" height="32" viewBox="0 0 32 32" fill="none" xmlns="http://www.w3.org/2000/svg">
<path d="M15.1681 21.2687H16.8319V16.7312H21.0194V15.1174H16.8319V10.5799H15.1681V15.1174H11.0337V16.7312H15.1681V21.2687ZM7.45372 27.8237H8.8656V23.7899H12.5968V22.5293H8.8656V18.4456H7.45372V22.5293H3.72247V23.7899H7.45372V27.8237ZM23.1343 13.2499H24.5462V9.21869H28.3275V8.00807H24.5462V3.92432H23.1343V8.00807H19.4031V9.21869H23.1343V13.2499ZM15.42 30.9999H16.63V28.1249H19.2019V27.0674H16.63V24.1924H15.42V27.0674H12.8993V28.1249H15.42V30.9999ZM7.50435 13.2499H8.81685V9.16807H12.5987V8.00807H8.81247V3.92432H7.49997V8.00807H3.72247V9.16807H7.50435V13.2499ZM27.2325 19.3024H28.4425V16.4787H31V15.3699H28.4425V12.5462H27.2325V15.3699H24.7119V16.4787H27.2325V19.3024Z" fill="#868AA8"/>
<path fill-rule="evenodd" clip-rule="evenodd" d="M23.1343 27.8238H24.5462V23.7901H28.3274V22.5294H24.5462V18.4457H23.1343V22.5294H19.4031V23.7901H23.1343V27.8238Z" fill="#868AA8"/>
<path d="M19.1875 4.63V3.77312H16.6663V1H15.7587V3.77312H13.2381V4.63H15.7587V7.40312H16.6663V4.63H19.1875ZM3.50688 19.1006H4.41437V16.3275H6.9375V15.4706H4.41437V12.75H3.50688V15.4725H1V16.38L3.50688 16.375V19.1006Z" fill="#868AA8"/>
</svg>
